<?xml version="1.0" encoding="UTF-8"?>
<svg width="595.28pt" version="1.1" xmlns="http://www.w3.org/2000/svg" height="841.89pt" viewBox="0 0 595.28 841.89" xmlns:xlink="http://www.w3.org/1999/xlink">
 <defs/>
 <g id="Fond de page">
  <path style="fill:#0000ff; fill-rule:evenodd;stroke:#0000ff; stroke-width:1; stroke-linecap:butt; stroke-linejoin:miter; stroke-dasharray:none;" d="M0 0 L267.75 0 L267.75 84.75 L0 84.75 L0 0 Z" transform="translate(158.75, 223)"/>
  <path style="fill:#0000ff; fill-rule:evenodd;stroke:#0000ff; stroke-width:1; stroke-linecap:butt; stroke-linejoin:miter; stroke-dasharray:none;" d="M190.25 55.5 C190.25 86.1529 147.663 111 95.125 111 C42.5889 111 0 86.1529 0 55.5 C0 24.8482 42.5889 0 95.125 0 C147.663 0 190.25 24.8482 190.25 55.5 Z" transform="translate(127, 149.25)"/>
  <path style="fill:#0000ff; fill-rule:evenodd;stroke:#0000ff; stroke-width:1; stroke-linecap:butt; stroke-linejoin:miter; stroke-dasharray:none;" d="M102.75 42 C102.75 65.1968 79.7497 84 51.375 84 C23.0014 84 0 65.1968 0 42 C0 18.804 23.0014 0 51.375 0 C79.7497 0 102.75 18.804 102.75 42 Z" transform="translate(105.5, 223.75)"/>
  <path style="fill:#0000ff; fill-rule:evenodd;stroke:#0000ff; stroke-width:1; stroke-linecap:butt; stroke-linejoin:miter; stroke-dasharray:none;" d="M86.25 42.375 C86.25 65.7789 66.9431 84.75 43.125 84.75 C19.3077 84.75 0 65.7789 0 42.375 C0 18.9719 19.3077 0 43.125 0 C66.9431 0 86.25 18.9719 86.25 42.375 Z" transform="translate(380.75, 223)"/>
  <path style="fill:#0000ff; fill-rule:evenodd;stroke:#0000ff; stroke-width:1; stroke-linecap:butt; stroke-linejoin:miter; stroke-dasharray:none;" d="M139.5 43.875 C139.5 68.1074 108.273 87.75 69.75 87.75 C31.2281 87.75 0 68.1074 0 43.875 C0 19.6435 31.2281 0 69.75 0 C108.273 0 139.5 19.6435 139.5 43.875 Z" transform="translate(215, 100.25)"/>
  <path style="fill:#0000ff; fill-rule:evenodd;stroke:#0000ff; stroke-width:1; stroke-linecap:butt; stroke-linejoin:miter; stroke-dasharray:none;" d="M127 54.875 C127 85.1827 98.5713 109.75 63.5 109.75 C28.4299 109.75 0 85.1827 0 54.875 C0 24.5684 28.4299 0 63.5 0 C98.5713 0 127 24.5684 127 54.875 Z" transform="translate(298.75, 163.5)"/>
  <path style="fill:#000000; fill-rule:evenodd;stroke:#ffffff; stroke-width:7; stroke-linecap:butt; stroke-linejoin:miter; stroke-dasharray:none;" d="M0 84 L188.875 0 L377.75 84 L0 84 Z" transform="translate(96.25, 218)"/>
  <path style="fill:#000000; fill-rule:evenodd;stroke:#ffffff; stroke-width:7; stroke-linecap:butt; stroke-linejoin:miter; stroke-dasharray:none;" d="M0 0 L13 0 L13 58.25 L0 58.25 L0 0 Z" transform="translate(123.5, 306.75)"/>
  <path style="fill:#000000; fill-rule:evenodd;stroke:#000000; stroke-width:1; stroke-linecap:butt; stroke-linejoin:miter; stroke-dasharray:none;" d="M0 0 L341.75 0 L170.875 88 L0 0 Z" transform="translate(114.25, 298.5)"/>
  <path style="fill:#000000; fill-rule:evenodd;stroke:#ffffff; stroke-width:7; stroke-linecap:butt; stroke-linejoin:miter; stroke-dasharray:none;" d="M0 55.7858 L0 20.2857 C74.1666 0 148.333 0 222.5 20.2857 L222.5 106.5 C148.333 86.2143 74.1666 86.2143 0 106.5 L0 55.7858 Z" transform="translate(175, 293)"/>
  <path style="fill:#000000; fill-rule:evenodd;stroke:#ffffff; stroke-width:7; stroke-linecap:butt; stroke-linejoin:miter; stroke-dasharray:none;" d="M33 16.125 C33 25.0309 25.613 32.25 16.5 32.25 C7.3873 32.25 0 25.0309 0 16.125 C0 7.21941 7.3873 0 16.5 0 C25.613 0 33 7.21941 33 16.125 Z" transform="translate(113.5, 347.5)"/>
  <path style="stroke:#ffffff; stroke-width:7; stroke-linecap:butt; stroke-linejoin:miter; stroke-dasharray:none;" d="M 0 0 L 73.8093 0" transform="translate(173.75, 334) rotate(207.867)"/>
  <path style="stroke:#ffffff; stroke-width:7; stroke-linecap:butt; stroke-linejoin:miter; stroke-dasharray:none;" d="M 0 0 L 71.3412 0" transform="translate(400, 331) rotate(332.447)"/>
 </g>
</svg>
